<svg xmlns="http://www.w3.org/2000/svg" xmlns:xlink="http://www.w3.org/1999/xlink" width="125" zoomAndPan="magnify" viewBox="0 0 93.75 30.000001" height="40" preserveAspectRatio="xMidYMid meet" version="1.0"><defs><g/></defs><g fill="#ffffff" fill-opacity="1"><g transform="translate(6.218103, 19.649033)"><g><path d="M 7.828125 -2.761719 L 7.828125 -9.90625 L 0.386719 -9.90625 L 0.386719 0 L 2.867188 0 L 2.867188 -2.761719 Z M 5.347656 -5.019531 L 2.867188 -5.019531 L 2.867188 -7.632812 L 5.347656 -7.632812 Z M 5.347656 -5.019531 "/></g></g></g><g fill="#ffffff" fill-opacity="1"><g transform="translate(14.385866, 19.649033)"><g><path d="M 2.867188 0 L 2.867188 -9.90625 L 0.386719 -9.90625 L 0.386719 0 Z M 2.867188 0 "/></g></g></g><g fill="#ffffff" fill-opacity="1"><g transform="translate(17.638118, 19.649033)"><g><path d="M 7.828125 0 L 7.828125 -2.257812 L 2.867188 -2.257812 L 2.867188 -7.632812 L 7.828125 -7.632812 L 7.828125 -9.90625 L 0.386719 -9.90625 L 0.386719 0 Z M 7.828125 0 "/></g></g></g><g fill="#ffffff" fill-opacity="1"><g transform="translate(25.761331, 19.649033)"><g><path d="M 7.828125 -7.632812 L 7.828125 -9.90625 L 5.347656 -9.90625 L 5.347656 -6.074219 L 2.867188 -6.074219 L 2.867188 -9.90625 L 0.386719 -9.90625 L 0.386719 0 L 2.867188 0 L 2.867188 -3.890625 L 3.921875 -3.890625 L 5.4375 0 L 7.796875 0 L 6.222656 -3.890625 L 7.335938 -3.890625 L 7.335938 -7.632812 Z M 7.828125 -7.632812 "/></g></g></g><g fill="#ffffff" fill-opacity="1"><g transform="translate(33.810288, 19.649033)"><g/></g></g><g fill="#ffffff" fill-opacity="1"><g transform="translate(39.007952, 19.649033)"><g><path d="M 7.828125 0 L 7.828125 -9.90625 L 0.386719 -9.90625 L 0.386719 0 L 2.867188 0 L 2.867188 -2.761719 L 5.347656 -2.761719 L 5.347656 0 Z M 5.347656 -5.019531 L 2.867188 -5.019531 L 2.867188 -7.632812 L 5.347656 -7.632812 Z M 5.347656 -5.019531 "/></g></g></g><g fill="#ffffff" fill-opacity="1"><g transform="translate(47.220267, 19.649033)"><g/></g></g><g fill="#ffffff" fill-opacity="1"><g transform="translate(52.417931, 19.649033)"><g><path d="M 7.828125 0 L 7.828125 -3.890625 L 5.347656 -3.890625 L 5.347656 -2.257812 L 2.867188 -2.257812 L 2.867188 -7.632812 L 7.828125 -7.632812 L 7.828125 -9.90625 L 0.386719 -9.90625 L 0.386719 0 Z M 7.828125 0 "/></g></g></g><g fill="#ffffff" fill-opacity="1"><g transform="translate(60.630246, 19.649033)"><g><path d="M 7.828125 0 L 7.828125 -9.90625 L 0.386719 -9.90625 L 0.386719 0 L 2.867188 0 L 2.867188 -2.761719 L 5.347656 -2.761719 L 5.347656 0 Z M 5.347656 -5.019531 L 2.867188 -5.019531 L 2.867188 -7.632812 L 5.347656 -7.632812 Z M 5.347656 -5.019531 "/></g></g></g><g fill="#ffffff" fill-opacity="1"><g transform="translate(68.842561, 19.649033)"><g><path d="M 10.128906 0 L 10.128906 -9.90625 L 0.222656 -9.90625 L 0.222656 -7.632812 L 0.714844 -7.632812 L 0.714844 0 L 2.703125 0 L 2.703125 -7.632812 L 3.9375 -7.632812 L 3.9375 0 L 6.417969 0 L 6.417969 -7.632812 L 7.648438 -7.632812 L 7.648438 0 Z M 10.128906 0 "/></g></g></g><g fill="#ffffff" fill-opacity="1"><g transform="translate(79.356697, 19.649033)"><g><path d="M 7.796875 0 L 7.796875 -2.257812 L 2.867188 -2.257812 L 2.867188 -3.890625 L 7.796875 -3.890625 L 7.796875 -6.074219 L 2.867188 -6.074219 L 2.867188 -7.632812 L 7.796875 -7.632812 L 7.796875 -9.90625 L 0.386719 -9.90625 L 0.386719 0 Z M 7.796875 0 "/></g></g></g></svg>