<svg xmlns="http://www.w3.org/2000/svg" xmlns:xlink="http://www.w3.org/1999/xlink" width="250" zoomAndPan="magnify" viewBox="0 0 187.5 30.000001" height="40" preserveAspectRatio="xMidYMid meet" version="1.0"><defs><g/><clipPath id="8eef54f8cb"><path d="M 182 9 L 184.234375 9 L 184.234375 18 L 182 18 Z M 182 9 " clip-rule="nonzero"/></clipPath></defs><g fill="#000000" fill-opacity="1"><g transform="translate(2.998302, 17.549701)"><g><path d="M 6.3125 0 L 6.3125 -3.136719 L 4.3125 -3.136719 L 4.3125 -1.820312 L 2.3125 -1.820312 L 2.3125 -6.15625 L 6.3125 -6.15625 L 6.3125 -7.992188 L 0.3125 -7.992188 L 0.3125 0 Z M 6.3125 0 "/></g></g></g><g fill="#000000" fill-opacity="1"><g transform="translate(9.622982, 17.549701)"><g><path d="M 6.3125 0 L 6.3125 -7.992188 L 0.3125 -7.992188 L 0.3125 0 L 2.3125 0 L 2.3125 -2.226562 L 4.3125 -2.226562 L 4.3125 0 Z M 4.3125 -4.050781 L 2.3125 -4.050781 L 2.3125 -6.15625 L 4.3125 -6.15625 Z M 4.3125 -4.050781 "/></g></g></g><g fill="#000000" fill-opacity="1"><g transform="translate(16.247662, 17.549701)"><g><path d="M 8.171875 0 L 8.171875 -7.992188 L 0.179688 -7.992188 L 0.179688 -6.15625 L 0.574219 -6.15625 L 0.574219 0 L 2.179688 0 L 2.179688 -6.15625 L 3.175781 -6.15625 L 3.175781 0 L 5.175781 0 L 5.175781 -6.15625 L 6.167969 -6.15625 L 6.167969 0 Z M 8.171875 0 "/></g></g></g><g fill="#000000" fill-opacity="1"><g transform="translate(24.729171, 17.549701)"><g><path d="M 6.289062 0 L 6.289062 -1.820312 L 2.3125 -1.820312 L 2.3125 -3.136719 L 6.289062 -3.136719 L 6.289062 -4.898438 L 2.3125 -4.898438 L 2.3125 -6.15625 L 6.289062 -6.15625 L 6.289062 -7.992188 L 0.3125 -7.992188 L 0.3125 0 Z M 6.289062 0 "/></g></g></g><g fill="#000000" fill-opacity="1"><g transform="translate(31.32989, 17.549701)"><g/></g></g><g fill="#000000" fill-opacity="1"><g transform="translate(35.522722, 17.549701)"><g><path d="M 6.289062 0 L 6.289062 -1.820312 L 2.3125 -1.820312 L 2.3125 -7.992188 L 0.3125 -7.992188 L 0.3125 0 Z M 6.289062 0 "/></g></g></g><g fill="#000000" fill-opacity="1"><g transform="translate(42.051558, 17.549701)"><g><path d="M 6.3125 0 L 6.3125 -7.992188 L 0.3125 -7.992188 L 0.3125 0 L 2.3125 0 L 2.3125 -2.226562 L 4.3125 -2.226562 L 4.3125 0 Z M 4.3125 -4.050781 L 2.3125 -4.050781 L 2.3125 -6.15625 L 4.3125 -6.15625 Z M 4.3125 -4.050781 "/></g></g></g><g fill="#000000" fill-opacity="1"><g transform="translate(48.676238, 17.549701)"><g><path d="M 6.3125 0 L 6.3125 -7.992188 L 4.3125 -7.992188 L 4.3125 -1.820312 L 2.3125 -1.820312 L 2.3125 -7.992188 L 0.3125 -7.992188 L 0.3125 0 Z M 6.3125 0 "/></g></g></g><g fill="#000000" fill-opacity="1"><g transform="translate(55.300918, 17.549701)"><g><path d="M 6.179688 0 L 6.179688 -7.992188 L 0.179688 -7.992188 L 0.179688 -6.15625 L 0.574219 -6.15625 L 0.574219 0 L 2.179688 0 L 2.179688 -6.15625 L 4.179688 -6.15625 L 4.179688 0 Z M 6.179688 0 "/></g></g></g><g fill="#000000" fill-opacity="1"><g transform="translate(61.79382, 17.549701)"><g><path d="M 6.3125 0 L 6.3125 -1.820312 L 2.3125 -1.820312 L 2.3125 -6.15625 L 6.3125 -6.15625 L 6.3125 -7.992188 L 0.3125 -7.992188 L 0.3125 0 Z M 6.3125 0 "/></g></g></g><g fill="#000000" fill-opacity="1"><g transform="translate(68.346617, 17.549701)"><g><path d="M 6.3125 0 L 6.3125 -7.992188 L 4.3125 -7.992188 L 4.3125 -4.898438 L 2.3125 -4.898438 L 2.3125 -7.992188 L 0.3125 -7.992188 L 0.3125 0 L 2.3125 0 L 2.3125 -3.136719 L 4.3125 -3.136719 L 4.3125 0 Z M 6.3125 0 "/></g></g></g><g fill="#000000" fill-opacity="1"><g transform="translate(74.971296, 17.549701)"><g><path d="M 6.289062 0 L 6.289062 -1.820312 L 2.3125 -1.820312 L 2.3125 -3.136719 L 6.289062 -3.136719 L 6.289062 -4.898438 L 2.3125 -4.898438 L 2.3125 -6.15625 L 6.289062 -6.15625 L 6.289062 -7.992188 L 0.3125 -7.992188 L 0.3125 0 Z M 6.289062 0 "/></g></g></g><g fill="#000000" fill-opacity="1"><g transform="translate(81.572015, 17.549701)"><g><path d="M 6.3125 0 L 5.140625 -2.226562 L 6.3125 -2.226562 L 6.3125 -7.992188 L 0.3125 -7.992188 L 0.3125 0 L 2.3125 0 L 2.3125 -2.226562 L 3.175781 -2.226562 L 4.3125 0 Z M 4.3125 -4.050781 L 2.3125 -4.050781 L 2.3125 -6.15625 L 4.3125 -6.15625 Z M 4.3125 -4.050781 "/></g></g></g><g fill="#000000" fill-opacity="1"><g transform="translate(88.196695, 17.549701)"><g/></g></g><g fill="#000000" fill-opacity="1"><g transform="translate(92.389528, 17.549701)"><g><path d="M 8.171875 0 L 8.171875 -7.992188 L 0.179688 -7.992188 L 0.179688 -6.15625 L 0.574219 -6.15625 L 0.574219 0 L 2.179688 0 L 2.179688 -6.15625 L 3.175781 -6.15625 L 3.175781 0 L 5.175781 0 L 5.175781 -6.15625 L 6.167969 -6.15625 L 6.167969 0 Z M 8.171875 0 "/></g></g></g><g fill="#000000" fill-opacity="1"><g transform="translate(100.871037, 17.549701)"><g><path d="M 6.3125 0 L 6.3125 -7.992188 L 0.3125 -7.992188 L 0.3125 0 L 2.3125 0 L 2.3125 -2.226562 L 4.3125 -2.226562 L 4.3125 0 Z M 4.3125 -4.050781 L 2.3125 -4.050781 L 2.3125 -6.15625 L 4.3125 -6.15625 Z M 4.3125 -4.050781 "/></g></g></g><g fill="#000000" fill-opacity="1"><g transform="translate(107.495717, 17.549701)"><g><path d="M 6.195312 0 L 6.195312 -7.992188 L 0.191406 -7.992188 L 0.191406 -6.15625 L 0.585938 -6.15625 L 0.585938 -1.820312 L 0.191406 -1.820312 L 0.191406 0 Z M 4.191406 -1.820312 L 2.191406 -1.820312 L 2.191406 -6.15625 L 4.191406 -6.15625 Z M 4.191406 -1.820312 "/></g></g></g><g fill="#000000" fill-opacity="1"><g transform="translate(114.000607, 17.549701)"><g><path d="M 6.289062 0 L 6.289062 -1.820312 L 2.3125 -1.820312 L 2.3125 -3.136719 L 6.289062 -3.136719 L 6.289062 -4.898438 L 2.3125 -4.898438 L 2.3125 -6.15625 L 6.289062 -6.15625 L 6.289062 -7.992188 L 0.3125 -7.992188 L 0.3125 0 Z M 6.289062 0 "/></g></g></g><g fill="#000000" fill-opacity="1"><g transform="translate(120.601325, 17.549701)"><g/></g></g><g fill="#000000" fill-opacity="1"><g transform="translate(124.794158, 17.549701)"><g><path d="M 6.3125 0 L 6.3125 -3.136719 L 5.425781 -4.011719 L 6.3125 -4.898438 L 6.3125 -7.992188 L 0.3125 -7.992188 L 0.3125 0 Z M 4.3125 -4.898438 L 2.3125 -4.898438 L 2.3125 -6.15625 L 4.3125 -6.15625 Z M 4.3125 -1.820312 L 2.3125 -1.820312 L 2.3125 -3.136719 L 4.3125 -3.136719 Z M 4.3125 -1.820312 "/></g></g></g><g fill="#000000" fill-opacity="1"><g transform="translate(131.418838, 17.549701)"><g><path d="M 6.566406 -6.15625 L 6.566406 -7.992188 L 4.167969 -7.992188 L 4.167969 -4.910156 L 2.574219 -4.910156 L 2.574219 -7.992188 L 0.179688 -7.992188 L 0.179688 -6.15625 L 0.574219 -6.15625 L 0.574219 -3.152344 L 2.371094 -3.152344 L 2.371094 0 L 4.371094 0 L 4.371094 -3.152344 L 6.167969 -3.152344 L 6.167969 -6.15625 Z M 6.566406 -6.15625 "/></g></g></g><g fill="#000000" fill-opacity="1"><g transform="translate(138.163307, 17.549701)"><g/></g></g><g fill="#000000" fill-opacity="1"><g transform="translate(142.35614, 17.549701)"><g><path d="M 6.195312 0 L 6.195312 -7.992188 L 0.191406 -7.992188 L 0.191406 -6.15625 L 0.585938 -6.15625 L 0.585938 -1.820312 L 0.191406 -1.820312 L 0.191406 0 Z M 4.191406 -1.820312 L 2.191406 -1.820312 L 2.191406 -6.15625 L 4.191406 -6.15625 Z M 4.191406 -1.820312 "/></g></g></g><g fill="#000000" fill-opacity="1"><g transform="translate(148.86103, 17.549701)"><g><path d="M 6.3125 0 L 6.3125 -7.992188 L 0.3125 -7.992188 L 0.3125 0 L 2.3125 0 L 2.3125 -2.226562 L 4.3125 -2.226562 L 4.3125 0 Z M 4.3125 -4.050781 L 2.3125 -4.050781 L 2.3125 -6.15625 L 4.3125 -6.15625 Z M 4.3125 -4.050781 "/></g></g></g><g fill="#000000" fill-opacity="1"><g transform="translate(155.48571, 17.549701)"><g><path d="M 6.578125 -6.15625 L 6.578125 -7.992188 L 4.179688 -7.992188 L 4.179688 -1.820312 L 2.574219 -1.820312 L 2.574219 -7.992188 L 0.179688 -7.992188 L 0.179688 -6.15625 L 0.574219 -6.15625 L 0.574219 0 L 6.179688 0 L 6.179688 -6.15625 Z M 6.578125 -6.15625 "/></g></g></g><g fill="#000000" fill-opacity="1"><g transform="translate(162.242167, 17.549701)"><g><path d="M 2.3125 0 L 2.3125 -7.992188 L 0.3125 -7.992188 L 0.3125 0 Z M 2.3125 0 "/></g></g></g><g fill="#000000" fill-opacity="1"><g transform="translate(164.865687, 17.549701)"><g><path d="M 6.195312 0 L 6.195312 -7.992188 L 0.191406 -7.992188 L 0.191406 -6.15625 L 0.585938 -6.15625 L 0.585938 -1.820312 L 0.191406 -1.820312 L 0.191406 0 Z M 4.191406 -1.820312 L 2.191406 -1.820312 L 2.191406 -6.15625 L 4.191406 -6.15625 Z M 4.191406 -1.820312 "/></g></g></g><g fill="#000000" fill-opacity="1"><g transform="translate(171.370577, 17.549701)"><g/></g></g><g fill="#000000" fill-opacity="1"><g transform="translate(175.563409, 17.549701)"><g><path d="M 6.289062 0 L 6.289062 -1.820312 L 2.3125 -1.820312 L 2.3125 -7.992188 L 0.3125 -7.992188 L 0.3125 0 Z M 6.289062 0 "/></g></g></g><g clip-path="url(#8eef54f8cb)"><g fill="#000000" fill-opacity="1"><g transform="translate(182.092245, 17.549701)"><g><path d="M 2.3125 0 L 2.3125 -7.992188 L 0.3125 -7.992188 L 0.3125 0 Z M 2.3125 0 "/></g></g></g></g></svg>