<svg xmlns="http://www.w3.org/2000/svg" xmlns:xlink="http://www.w3.org/1999/xlink" width="500" zoomAndPan="magnify" viewBox="0 0 375 187.499995" height="250" preserveAspectRatio="xMidYMid meet" version="1.0"><defs><g/></defs><g fill="#ffffff" fill-opacity="1"><g transform="translate(74.15382, 111.585274)"><g><path d="M 27.070312 0 L 27.070312 -7.835938 L 9.949219 -7.835938 L 9.949219 -34.390625 L 1.339844 -34.390625 L 1.339844 0 Z M 27.070312 0 "/></g></g></g><g fill="#ffffff" fill-opacity="1"><g transform="translate(102.250677, 111.585274)"><g><path d="M 27.171875 0 L 27.171875 -34.390625 L 1.339844 -34.390625 L 1.339844 0 L 9.949219 0 L 9.949219 -9.589844 L 18.5625 -9.589844 L 18.5625 0 Z M 18.5625 -17.425781 L 9.949219 -17.425781 L 9.949219 -26.5 L 18.5625 -26.5 Z M 18.5625 -17.425781 "/></g></g></g><g fill="#ffffff" fill-opacity="1"><g transform="translate(130.759965, 111.585274)"><g><path d="M 27.171875 0 L 27.171875 -34.390625 L 18.5625 -34.390625 L 18.5625 -7.835938 L 9.949219 -7.835938 L 9.949219 -34.390625 L 1.339844 -34.390625 L 1.339844 0 Z M 27.171875 0 "/></g></g></g><g fill="#ffffff" fill-opacity="1"><g transform="translate(159.269254, 111.585274)"><g><path d="M 26.605469 0 L 26.605469 -34.390625 L 0.773438 -34.390625 L 0.773438 -26.5 L 2.476562 -26.5 L 2.476562 0 L 9.382812 0 L 9.382812 -26.5 L 17.996094 -26.5 L 17.996094 0 Z M 26.605469 0 "/></g></g></g><g fill="#ffffff" fill-opacity="1"><g transform="translate(187.211455, 111.585274)"><g><path d="M 27.171875 0 L 27.171875 -7.835938 L 9.949219 -7.835938 L 9.949219 -26.5 L 27.171875 -26.5 L 27.171875 -34.390625 L 1.339844 -34.390625 L 1.339844 0 Z M 27.171875 0 "/></g></g></g><g fill="#ffffff" fill-opacity="1"><g transform="translate(215.411423, 111.585274)"><g><path d="M 27.171875 0 L 27.171875 -34.390625 L 18.5625 -34.390625 L 18.5625 -21.089844 L 9.949219 -21.089844 L 9.949219 -34.390625 L 1.339844 -34.390625 L 1.339844 0 L 9.949219 0 L 9.949219 -13.507812 L 18.5625 -13.507812 L 18.5625 0 Z M 27.171875 0 "/></g></g></g><g fill="#ffffff" fill-opacity="1"><g transform="translate(243.920712, 111.585274)"><g><path d="M 27.070312 0 L 27.070312 -7.835938 L 9.949219 -7.835938 L 9.949219 -13.507812 L 27.070312 -13.507812 L 27.070312 -21.089844 L 9.949219 -21.089844 L 9.949219 -26.5 L 27.070312 -26.5 L 27.070312 -34.390625 L 1.339844 -34.390625 L 1.339844 0 Z M 27.070312 0 "/></g></g></g><g fill="#ffffff" fill-opacity="1"><g transform="translate(272.326913, 111.585274)"><g><path d="M 27.171875 0 L 22.121094 -9.589844 L 27.171875 -9.589844 L 27.171875 -34.390625 L 1.339844 -34.390625 L 1.339844 0 L 9.949219 0 L 9.949219 -9.589844 L 13.664062 -9.589844 L 18.5625 0 Z M 18.5625 -17.425781 L 9.949219 -17.425781 L 9.949219 -26.5 L 18.5625 -26.5 Z M 18.5625 -17.425781 "/></g></g></g></svg>